<?xml version="1.0" encoding="utf-8"?>
<!-- Generator: Adobe Illustrator 16.0.0, SVG Export Plug-In . SVG Version: 6.00 Build 0)  -->
<!DOCTYPE svg PUBLIC "-//W3C//DTD SVG 1.1//EN" "http://www.w3.org/Graphics/SVG/1.1/DTD/svg11.dtd">
<svg version="1.1" id="Layer_1" xmlns="http://www.w3.org/2000/svg" xmlns:xlink="http://www.w3.org/1999/xlink" x="0px" y="0px"
	 width="80.753px" height="149.91px" viewBox="0 0 80.753 149.91" enable-background="new 0 0 80.753 149.91" xml:space="preserve">
<path fill="#E30913" d="M51.921,133.996c17.535-13.73,28.832-35.092,28.832-59.04C80.753,33.625,47.123,0,5.797,0H0v11.589h5.797
	c15.926,0,28.886,12.958,28.886,28.888c0,15.93-12.96,28.884-28.886,28.884H0v5.797c0,20.016,7.801,38.803,21.962,52.908
	c2.142,2.136,4.398,4.121,6.749,5.963c-7.113,2.768-14.838,4.289-22.913,4.289H0v11.592h5.797c12.427,0,24.154-3.047,34.484-8.422
	c10.575,5.498,22.398,8.422,34.673,8.422h5.797v-11.592h-5.797C66.833,138.32,59.062,136.785,51.921,133.996z M11.817,80.51
	c19.476-2.918,34.454-19.761,34.454-40.034c0-6.147-1.376-11.974-3.839-17.197c16.163,11.494,26.729,30.373,26.729,51.675
	c0,22.198-11.479,41.767-28.813,53.087C24.455,117.671,13.493,100.391,11.817,80.51z"/>
</svg>
